<?xml version="1.0" encoding="UTF-8"?>
<svg xmlns="http://www.w3.org/2000/svg" viewBox="0 0 805 1015.42">
  <defs>
    <style>
      .cls-1 {
        fill: none;
      }

      .cls-1, .cls-2 {
        stroke: #4A4A4A;
        stroke-miterlimit: 10;
        stroke-width: 5px;
      }

      .cls-2 {
        fill: #F5F5F5;
      }
    </style>
  </defs>
  <g id="card-tag">
    <path class="cls-1" d="M523.58,57.92v3.61c0,8.65-7.01,15.67-15.66,15.67h-210.84c-8.65,0-15.66-7.02-15.66-15.67v-3.61c0-4.33,1.75-8.24,4.58-11.08,4.49-4.48,10.04-4.58,11.08-4.58,18.12,0,45.09.34,69.23.47,5.01-7.17,19.28-15.71,34.42-16.32,16.61-.67,31.98,8.3,37.59,15.85h69.6c8.65,0,15.66,7.01,15.66,15.66Z"/>
  </g>
  <g id="card-background">
    <path class="cls-2" d="M761.03,2.5H43.97C21.07,2.5,2.5,21.07,2.5,43.97v927.48c0,22.9,18.57,41.47,41.47,41.47h717.06c22.9,0,41.47-18.57,41.47-41.47V43.97c0-22.9-18.57-41.47-41.47-41.47ZM523.58,61.53c0,8.65-7.01,15.67-15.66,15.67h-210.84c-8.65,0-15.66-7.02-15.66-15.67v-3.61c0-4.33,1.75-8.24,4.58-11.08,4.49-4.48,10.04-4.58,11.08-4.58,18.12,0,45.09.34,69.23.47,5.01-7.17,19.28-15.71,34.42-16.32,16.61-.67,31.98,8.3,37.59,15.85h69.6c8.65,0,15.66,7.01,15.66,15.66v3.61Z"/>
  </g>
</svg>